# xmcd CD database file
#
# Track frame offsets:
#	150
#	26975
#	54307
#	82275
#	111834
#	140356
#	175405
#	200481
#	233199
#	271704
#
# Disc length: 3957 seconds
#
# Revision: 0
# Processed by: cddbd v1.5.2PL0 Copyright (c) Steve Scherf et al.
# Submitted via: CDex 1.51
#
DISCID=8d0f730a
DTITLE=Andy La Verne Gary Verace - All Ways
DYEAR=2004
DGENRE=Jazz
TTITLE0=Without a Song
TTITLE1=Apropos
TTITLE2=Watermelon Man
TTITLE3=Hydroponic
TTITLE4=So Long Ago
TTITLE5=Blue Bossa
TTITLE6=Love is a many Splendored Thing
TTITLE7=Bewitched Bothered and Bewildered
TTITLE8=All Ways
TTITLE9=Cool de la
EXTD=YEAR: 2004
EXTT0=
EXTT1=
EXTT2=
EXTT3=
EXTT4=
EXTT5=
EXTT6=
EXTT7=
EXTT8=
EXTT9=
PLAYORDER=
